<mxfile host="app.diagrams.net" modified="2023-05-16T23:11:18.534Z" agent="Mozilla/5.0 (Windows NT 10.0; Win64; x64) AppleWebKit/537.36 (KHTML, like Gecko) Chrome/110.0.0.0 YaBrowser/23.3.3.719 Yowser/2.5 Safari/537.36" etag="HMyxq0GOBNNRjnPC6Div" version="21.3.2" type="device">
  <diagram id="-M5omnuiI330wpWqbu_Q" name="Страница 1">
    <mxGraphModel dx="1242" dy="577" grid="1" gridSize="10" guides="1" tooltips="1" connect="1" arrows="1" fold="1" page="1" pageScale="1" pageWidth="827" pageHeight="1169" math="0" shadow="0">
      <root>
        <mxCell id="0" />
        <mxCell id="1" parent="0" />
        <mxCell id="dzlM3upZpsxzgTbLpF2P-1" value="User&lt;br&gt;" style="shape=umlActor;verticalLabelPosition=bottom;verticalAlign=top;html=1;outlineConnect=0;" parent="1" vertex="1">
          <mxGeometry x="140" y="220" width="30" height="60" as="geometry" />
        </mxCell>
        <mxCell id="dzlM3upZpsxzgTbLpF2P-2" value="" style="endArrow=classic;html=1;rounded=0;" parent="1" edge="1">
          <mxGeometry width="50" height="50" relative="1" as="geometry">
            <mxPoint x="180" y="270" as="sourcePoint" />
            <mxPoint x="230" y="220" as="targetPoint" />
          </mxGeometry>
        </mxCell>
        <mxCell id="dzlM3upZpsxzgTbLpF2P-3" value="" style="ellipse;whiteSpace=wrap;html=1;" parent="1" vertex="1">
          <mxGeometry x="230" y="190" width="160" height="50" as="geometry" />
        </mxCell>
        <mxCell id="dzlM3upZpsxzgTbLpF2P-4" value="Регитрация" style="text;html=1;align=center;verticalAlign=middle;resizable=0;points=[];autosize=1;strokeColor=none;fillColor=none;" parent="1" vertex="1">
          <mxGeometry x="260" y="200" width="90" height="30" as="geometry" />
        </mxCell>
        <mxCell id="dzlM3upZpsxzgTbLpF2P-5" value="" style="ellipse;whiteSpace=wrap;html=1;" parent="1" vertex="1">
          <mxGeometry x="495" y="290" width="157.5" height="50" as="geometry" />
        </mxCell>
        <mxCell id="dzlM3upZpsxzgTbLpF2P-7" value="Добавление/удаление &lt;br&gt;питомца" style="text;html=1;align=center;verticalAlign=middle;resizable=0;points=[];autosize=1;strokeColor=none;fillColor=none;" parent="1" vertex="1">
          <mxGeometry x="500" y="295" width="150" height="40" as="geometry" />
        </mxCell>
        <mxCell id="dzlM3upZpsxzgTbLpF2P-8" value="" style="endArrow=classic;html=1;rounded=0;entryX=0;entryY=0.5;entryDx=0;entryDy=0;" parent="1" target="81JoD5gfUSFGQZPMCgxD-3" edge="1">
          <mxGeometry width="50" height="50" relative="1" as="geometry">
            <mxPoint x="180" y="280" as="sourcePoint" />
            <mxPoint x="300" y="250" as="targetPoint" />
          </mxGeometry>
        </mxCell>
        <mxCell id="dzlM3upZpsxzgTbLpF2P-9" value="" style="ellipse;whiteSpace=wrap;html=1;" parent="1" vertex="1">
          <mxGeometry x="495" y="225" width="160" height="50" as="geometry" />
        </mxCell>
        <mxCell id="dzlM3upZpsxzgTbLpF2P-10" value="Просмотр процедур&amp;nbsp; и &lt;br&gt;мастеров" style="text;html=1;align=center;verticalAlign=middle;resizable=0;points=[];autosize=1;strokeColor=none;fillColor=none;" parent="1" vertex="1">
          <mxGeometry x="505" y="230" width="150" height="40" as="geometry" />
        </mxCell>
        <mxCell id="dzlM3upZpsxzgTbLpF2P-11" value="Запись на процедуру к определённому мастеру" style="ellipse;whiteSpace=wrap;html=1;" parent="1" vertex="1">
          <mxGeometry x="480" y="450" width="160" height="60" as="geometry" />
        </mxCell>
        <mxCell id="dzlM3upZpsxzgTbLpF2P-12" value="Просмотр истории процедур питомцев" style="ellipse;whiteSpace=wrap;html=1;" parent="1" vertex="1">
          <mxGeometry x="495" y="370" width="150" height="60" as="geometry" />
        </mxCell>
        <mxCell id="dzlM3upZpsxzgTbLpF2P-13" value="Оценка работы мастера" style="ellipse;whiteSpace=wrap;html=1;" parent="1" vertex="1">
          <mxGeometry x="505" y="160" width="160" height="40" as="geometry" />
        </mxCell>
        <mxCell id="dzlM3upZpsxzgTbLpF2P-14" value="CRUD операции над мастерами и процедурами" style="ellipse;whiteSpace=wrap;html=1;" parent="1" vertex="1">
          <mxGeometry x="320" y="480" width="150" height="60" as="geometry" />
        </mxCell>
        <mxCell id="dzlM3upZpsxzgTbLpF2P-16" value="Одобрение или отклонение записи к мастеру" style="ellipse;whiteSpace=wrap;html=1;" parent="1" vertex="1">
          <mxGeometry x="350" y="640" width="145" height="70" as="geometry" />
        </mxCell>
        <mxCell id="81JoD5gfUSFGQZPMCgxD-1" value="Admin&lt;br&gt;" style="shape=umlActor;verticalLabelPosition=bottom;verticalAlign=top;html=1;outlineConnect=0;" parent="1" vertex="1">
          <mxGeometry x="50" y="555" width="30" height="60" as="geometry" />
        </mxCell>
        <mxCell id="81JoD5gfUSFGQZPMCgxD-3" value="Авторизация&amp;nbsp;" style="ellipse;whiteSpace=wrap;html=1;" parent="1" vertex="1">
          <mxGeometry x="230" y="290" width="160" height="50" as="geometry" />
        </mxCell>
        <mxCell id="81JoD5gfUSFGQZPMCgxD-4" value="" style="endArrow=classic;html=1;rounded=0;entryX=0;entryY=0.5;entryDx=0;entryDy=0;" parent="1" target="dzlM3upZpsxzgTbLpF2P-9" edge="1">
          <mxGeometry width="50" height="50" relative="1" as="geometry">
            <mxPoint x="390" y="310" as="sourcePoint" />
            <mxPoint x="490" y="290" as="targetPoint" />
          </mxGeometry>
        </mxCell>
        <mxCell id="81JoD5gfUSFGQZPMCgxD-6" value="" style="endArrow=classic;html=1;rounded=0;entryX=0.004;entryY=0.33;entryDx=0;entryDy=0;entryPerimeter=0;" parent="1" target="dzlM3upZpsxzgTbLpF2P-11" edge="1">
          <mxGeometry width="50" height="50" relative="1" as="geometry">
            <mxPoint x="390" y="330" as="sourcePoint" />
            <mxPoint x="210" y="320" as="targetPoint" />
          </mxGeometry>
        </mxCell>
        <mxCell id="81JoD5gfUSFGQZPMCgxD-7" value="" style="endArrow=classic;html=1;rounded=0;entryX=0;entryY=0.5;entryDx=0;entryDy=0;exitX=1.01;exitY=0.652;exitDx=0;exitDy=0;exitPerimeter=0;" parent="1" source="81JoD5gfUSFGQZPMCgxD-3" target="dzlM3upZpsxzgTbLpF2P-12" edge="1">
          <mxGeometry width="50" height="50" relative="1" as="geometry">
            <mxPoint x="270" y="420" as="sourcePoint" />
            <mxPoint x="440" y="340" as="targetPoint" />
          </mxGeometry>
        </mxCell>
        <mxCell id="81JoD5gfUSFGQZPMCgxD-8" value="" style="endArrow=classic;html=1;rounded=0;entryX=0;entryY=0.5;entryDx=0;entryDy=0;" parent="1" target="dzlM3upZpsxzgTbLpF2P-13" edge="1">
          <mxGeometry width="50" height="50" relative="1" as="geometry">
            <mxPoint x="390" y="300" as="sourcePoint" />
            <mxPoint x="440" y="390" as="targetPoint" />
          </mxGeometry>
        </mxCell>
        <mxCell id="81JoD5gfUSFGQZPMCgxD-9" value="Авторизация&amp;nbsp;" style="ellipse;whiteSpace=wrap;html=1;" parent="1" vertex="1">
          <mxGeometry x="340" y="565" width="140" height="65" as="geometry" />
        </mxCell>
        <mxCell id="81JoD5gfUSFGQZPMCgxD-10" value="" style="endArrow=classic;html=1;rounded=0;" parent="1" target="dzlM3upZpsxzgTbLpF2P-14" edge="1">
          <mxGeometry width="50" height="50" relative="1" as="geometry">
            <mxPoint x="90" y="580" as="sourcePoint" />
            <mxPoint x="440" y="340" as="targetPoint" />
          </mxGeometry>
        </mxCell>
        <mxCell id="81JoD5gfUSFGQZPMCgxD-11" value="" style="endArrow=classic;html=1;rounded=0;" parent="1" source="81JoD5gfUSFGQZPMCgxD-1" edge="1">
          <mxGeometry width="50" height="50" relative="1" as="geometry">
            <mxPoint x="390" y="390" as="sourcePoint" />
            <mxPoint x="350" y="670" as="targetPoint" />
          </mxGeometry>
        </mxCell>
        <mxCell id="81JoD5gfUSFGQZPMCgxD-12" value="" style="endArrow=classic;html=1;rounded=0;entryX=0;entryY=0.5;entryDx=0;entryDy=0;" parent="1" source="81JoD5gfUSFGQZPMCgxD-1" target="81JoD5gfUSFGQZPMCgxD-9" edge="1">
          <mxGeometry width="50" height="50" relative="1" as="geometry">
            <mxPoint x="390" y="390" as="sourcePoint" />
            <mxPoint x="440" y="340" as="targetPoint" />
          </mxGeometry>
        </mxCell>
        <mxCell id="81JoD5gfUSFGQZPMCgxD-16" value="" style="endArrow=classic;html=1;rounded=0;entryX=0;entryY=0.5;entryDx=0;entryDy=0;exitX=1;exitY=0.5;exitDx=0;exitDy=0;" parent="1" source="81JoD5gfUSFGQZPMCgxD-3" target="dzlM3upZpsxzgTbLpF2P-5" edge="1">
          <mxGeometry width="50" height="50" relative="1" as="geometry">
            <mxPoint x="420" y="360" as="sourcePoint" />
            <mxPoint x="470" y="310" as="targetPoint" />
          </mxGeometry>
        </mxCell>
        <mxCell id="wWwL6gKu87rzMaXbHTBp-8" value="" style="endArrow=none;dashed=1;html=1;rounded=0;entryX=0.445;entryY=1.036;entryDx=0;entryDy=0;entryPerimeter=0;exitX=0.44;exitY=-0.02;exitDx=0;exitDy=0;exitPerimeter=0;" parent="1" source="81JoD5gfUSFGQZPMCgxD-3" target="dzlM3upZpsxzgTbLpF2P-3" edge="1">
          <mxGeometry width="50" height="50" relative="1" as="geometry">
            <mxPoint x="480" y="360" as="sourcePoint" />
            <mxPoint x="530" y="310" as="targetPoint" />
          </mxGeometry>
        </mxCell>
        <mxCell id="wWwL6gKu87rzMaXbHTBp-9" value="Просмотр текущего расписания салона&amp;nbsp;" style="ellipse;whiteSpace=wrap;html=1;" parent="1" vertex="1">
          <mxGeometry x="350" y="730" width="160" height="70" as="geometry" />
        </mxCell>
        <mxCell id="wWwL6gKu87rzMaXbHTBp-10" value="" style="endArrow=classic;html=1;rounded=0;entryX=0;entryY=0.5;entryDx=0;entryDy=0;" parent="1" target="wWwL6gKu87rzMaXbHTBp-9" edge="1">
          <mxGeometry width="50" height="50" relative="1" as="geometry">
            <mxPoint x="90" y="600" as="sourcePoint" />
            <mxPoint x="430" y="570" as="targetPoint" />
          </mxGeometry>
        </mxCell>
      </root>
    </mxGraphModel>
  </diagram>
</mxfile>
